<?xml version="1.0" encoding="UTF-8" standalone="no"?>
<svg
   xmlns:dc="http://purl.org/dc/elements/1.1/"
   xmlns:cc="http://creativecommons.org/ns#"
   xmlns:rdf="http://www.w3.org/1999/02/22-rdf-syntax-ns#"
   xmlns:svg="http://www.w3.org/2000/svg"
   xmlns="http://www.w3.org/2000/svg"
   xml:space="preserve"
   viewBox="0 0 128 128"
   version="1.1"
   style="enable-background:new 0 0 128 128;"
   id="Lager_1"><metadata
     id="metadata35"><rdf:RDF><cc:Work
         rdf:about=""><dc:format>image/svg+xml</dc:format><dc:type
           rdf:resource="http://purl.org/dc/dcmitype/StillImage" /><dc:title></dc:title></cc:Work></rdf:RDF></metadata><defs
     id="defs33" /><style
     id="style3"
     type="text/css">
	.st0{fill:#85C808;}
	.st1{fill:#FFFFFF;}
</style><g
     transform="matrix(1.28,0,0,1.28,-17.92,-17.92)"
     id="g4163"><path
       style="fill:#85c808"
       class="st0"
       d="m 64,14 c -27.6,0 -50,22.4 -50,50 0,27.6 22.4,50 50,50 27.6,0 50,-22.4 50,-50 C 114,36.4 91.6,14 64,14 Z"
       id="path5" /><g
       id="g7"><g
         id="g9"><path
           style="fill:#ffffff"
           class="st1"
           d="m 42.5,50.3 c -2.2,0 -3.9,1.8 -3.9,3.9 l 0,15.7 c 0,2.2 1.8,3.9 3.9,3.9 2.2,0 3.9,-1.8 3.9,-3.9 l 0,-15.7 c 0,-2.2 -1.8,-3.9 -3.9,-3.9 z"
           id="path11" /><path
           style="fill:#ffffff"
           class="st1"
           d="m 85.5,50.3 c -2.2,0 -3.9,1.8 -3.9,3.9 l 0,15.7 c 0,2.2 1.8,3.9 3.9,3.9 2.2,0 3.9,-1.8 3.9,-3.9 l 0,-15.7 c 0,-2.2 -1.7,-3.9 -3.9,-3.9 z"
           id="path13" /><path
           style="fill:#ffffff"
           class="st1"
           d="m 48.3,81.6 3.9,0 0,9.8 c 0,2.2 1.8,3.9 3.9,3.9 2.2,0 3.9,-1.8 3.9,-3.9 l 0,-9.8 7.8,0 0,9.8 c 0,2.2 1.8,3.9 3.9,3.9 2.2,0 3.9,-1.8 3.9,-3.9 l 0,-9.8 3.9,0 0,-29.4 -31.2,0 0,29.4 z"
           id="path15" /><path
           style="fill:#ffffff"
           class="st1"
           d="m 73.2,37.7 2,-3.5 c 0.3,-0.5 0.1,-1.1 -0.4,-1.3 -0.5,-0.3 -1.1,-0.1 -1.3,0.4 l -2,3.4 c -2.2,-1.3 -4.8,-2 -7.6,-2 -2.8,0 -5.3,0.7 -7.6,2 l -2,-3.4 C 54,32.8 53.4,32.7 53,32.9 c -0.5,0.3 -0.6,0.9 -0.4,1.3 l 2,3.5 c -3.9,2.8 -6.4,7.4 -6.4,12.6 l 31.3,0 c 0.2,-5.2 -2.4,-9.8 -6.3,-12.6 z m -15.1,6.7 c -1.1,0 -2,-0.9 -2,-2 0,-1.1 0.9,-2 2,-2 1.1,0 2,0.9 2,2 0,1.1 -0.9,2 -2,2 z m 11.8,0 c -1.1,0 -2,-0.9 -2,-2 0,-1.1 0.9,-2 2,-2 1.1,0 2,0.9 2,2 0,1.1 -0.9,2 -2,2 z"
           id="path17" /></g><g
         id="g19" /><g
         id="g21" /><g
         id="g23" /><g
         id="g25" /><g
         id="g27" /><g
         id="g29" /></g></g></svg>